<svg xmlns="http://www.w3.org/2000/svg" width="76" height="66" viewBox="0 0 76 66"><g transform="translate(-39 -39)"><g transform="translate(58 39)"><path d="M 37.13516998291016 32.5 L 0.8648287653923035 32.5 L 19 1.002071022987366 L 37.13516998291016 32.5 Z" stroke="none"/><path d="M 19 2.004142761230469 L 1.729656219482422 32 L 36.27034378051758 32 L 19 2.004142761230469 M 19 0 L 38 33 L 0 33 L 19 0 Z" stroke="none" fill="#707070"/></g><g transform="translate(77 72)"><path d="M 37.13516998291016 32.5 L 0.8648287653923035 32.5 L 19 1.002071022987366 L 37.13516998291016 32.5 Z" stroke="none"/><path d="M 19 2.004142761230469 L 1.729656219482422 32 L 36.27034378051758 32 L 19 2.004142761230469 M 19 0 L 38 33 L 0 33 L 19 0 Z" stroke="none" fill="#707070"/></g><g transform="translate(39 72)"><path d="M 37.13516998291016 32.5 L 0.8648287653923035 32.5 L 19 1.002071022987366 L 37.13516998291016 32.5 Z" stroke="none"/><path d="M 19 2.004142761230469 L 1.729656219482422 32 L 36.27034378051758 32 L 19 2.004142761230469 M 19 0 L 38 33 L 0 33 L 19 0 Z" stroke="none" fill="#707070"/></g></g></svg>